<?xml version="1.0" encoding="UTF-8" standalone="no"?>
<!-- Created with Inkscape (http://www.inkscape.org/) -->
<svg
   xmlns:dc="http://purl.org/dc/elements/1.1/"
   xmlns:cc="http://creativecommons.org/ns#"
   xmlns:rdf="http://www.w3.org/1999/02/22-rdf-syntax-ns#"
   xmlns:svg="http://www.w3.org/2000/svg"
   xmlns="http://www.w3.org/2000/svg"
   xmlns:sodipodi="http://sodipodi.sourceforge.net/DTD/sodipodi-0.dtd"
   xmlns:inkscape="http://www.inkscape.org/namespaces/inkscape"
   width="552.89984"
   height="194.76923"
   id="svg2"
   sodipodi:version="0.32"
   inkscape:version="0.46"
   sodipodi:docname="JGraLabFinal.svg"
   inkscape:output_extension="org.inkscape.output.svg.inkscape"
   version="1.0">
  <defs
     id="defs4">
    <inkscape:perspective
       sodipodi:type="inkscape:persp3d"
       inkscape:vp_x="0 : 526.18109 : 1"
       inkscape:vp_y="0 : 1000 : 0"
       inkscape:vp_z="744.09448 : 526.18109 : 1"
       inkscape:persp3d-origin="372.04724 : 350.78739 : 1"
       id="perspective10" />
  </defs>
  <sodipodi:namedview
     id="base"
     pagecolor="#ffffff"
     bordercolor="#666666"
     borderopacity="1.0"
     inkscape:pageopacity="0.0"
     inkscape:pageshadow="2"
     inkscape:zoom="0.35"
     inkscape:cx="258.9962"
     inkscape:cy="151.50774"
     inkscape:document-units="px"
     inkscape:current-layer="layer1"
     showgrid="false"
     showguides="true"
     inkscape:guide-bbox="true"
     inkscape:window-width="1024"
     inkscape:window-height="746"
     inkscape:window-x="0"
     inkscape:window-y="0">
    <sodipodi:guide
       orientation="0,1"
       position="-483.86307,862.67027"
       id="guide3622" />
  </sodipodi:namedview>
  <metadata
     id="metadata7">
    <rdf:RDF>
      <cc:Work
         rdf:about="">
        <dc:format>image/svg+xml</dc:format>
        <dc:type
           rdf:resource="http://purl.org/dc/dcmitype/StillImage" />
      </cc:Work>
    </rdf:RDF>
  </metadata>
  <g
     inkscape:label="Ebene 1"
     inkscape:groupmode="layer"
     id="layer1"
     transform="translate(-84.68711,-354.68313)">
    <path
       style="fill:none;fill-opacity:1;fill-rule:evenodd;stroke:#03ff00;stroke-width:7;stroke-linecap:butt;stroke-linejoin:miter;stroke-miterlimit:4;stroke-dasharray:none;stroke-opacity:1"
       id="path3189"
       sodipodi:nodetypes="cc" />
    <text
       xml:space="preserve"
       style="font-size:78.93642426px;font-style:normal;font-variant:normal;font-weight:normal;font-stretch:normal;text-align:start;line-height:125%;writing-mode:lr-tb;text-anchor:start;fill:#000000;fill-opacity:1;stroke:none;stroke-width:1px;stroke-linecap:butt;stroke-linejoin:miter;stroke-opacity:1;font-family:Candara;-inkscape-font-specification:Candara"
       x="503.89981"
       y="480.23984"
       id="text3195"
       sodipodi:linespacing="125%"><tspan
         sodipodi:role="line"
         id="tspan3197"
         x="503.89981"
         y="480.23984">LAB</tspan></text>
    <text
       xml:space="preserve"
       style="font-size:300.14099121px;font-style:italic;font-variant:normal;font-weight:normal;font-stretch:normal;text-align:start;line-height:125%;writing-mode:lr-tb;text-anchor:start;fill:#000000;fill-opacity:1;stroke:none;stroke-width:1px;stroke-linecap:butt;stroke-linejoin:miter;stroke-opacity:1;font-family:Candara;-inkscape-font-specification:Candara Italic"
       x="91.575111"
       y="545.49542"
       id="text3222"
       sodipodi:linespacing="125%"><tspan
         sodipodi:role="line"
         id="tspan3224"
         x="91.575111"
         y="545.49542">J</tspan></text>
    <path
       style="fill:#00c400;fill-opacity:1;fill-rule:evenodd;stroke:#000000;stroke-width:0.78381085;stroke-linecap:butt;stroke-linejoin:miter;stroke-miterlimit:4;stroke-dasharray:none;stroke-opacity:1"
       d="M 549.61386,390.85944 C 517.15406,390.95845 502.33056,398.28072 488.74606,405.67837 C 473.22096,414.13282 459.19806,422.59004 414.83516,423.52843 L 415.08016,435.92856 C 461.07246,434.9557 469.52756,430.54185 484.88826,422.17688 C 500.24906,413.81191 522.37496,401.37472 563.97356,403.68822 L 564.64716,391.28809 C 559.24326,390.98755 554.25096,390.8453 549.61386,390.85944 z"
       id="path3292"
       sodipodi:nodetypes="csccsccc" />
    <path
       style="fill:none;fill-rule:evenodd;stroke:#000000;stroke-width:6.56797838;stroke-linecap:round;stroke-linejoin:miter;stroke-miterlimit:4;stroke-dasharray:none;stroke-opacity:1"
       d="M 191.31246,500.55712 L 634.30296,500.55712"
       id="path3370"
       sodipodi:nodetypes="cc" />
    <path
       style="fill:none;fill-opacity:1;fill-rule:evenodd;stroke:#00c400;stroke-width:12.67569447;stroke-linecap:butt;stroke-linejoin:miter;stroke-miterlimit:4;stroke-dasharray:none;stroke-opacity:1"
       id="path3374"
       sodipodi:nodetypes="cc"
       d="" />
    <path
       style="fill:none;fill-opacity:1;fill-rule:evenodd;stroke:#03ff00;stroke-width:7;stroke-linecap:butt;stroke-linejoin:miter;stroke-miterlimit:4;stroke-dasharray:none;stroke-opacity:1"
       id="path3378"
       sodipodi:nodetypes="cc"
       d="" />
    <path
       style="fill:none;fill-opacity:1;fill-rule:evenodd;stroke:#00c400;stroke-width:12.67569447;stroke-linecap:butt;stroke-linejoin:miter;stroke-miterlimit:4;stroke-dasharray:none;stroke-opacity:1"
       id="path3452"
       sodipodi:nodetypes="cc"
       d="" />
    <path
       style="fill:none;fill-opacity:1;fill-rule:evenodd;stroke:#00c400;stroke-width:12.67569447;stroke-linecap:butt;stroke-linejoin:miter;stroke-miterlimit:4;stroke-dasharray:none;stroke-opacity:1"
       id="path3526"
       sodipodi:nodetypes="cc"
       d="" />
    <path
       style="fill:none;fill-opacity:1;fill-rule:evenodd;stroke:#00c400;stroke-width:12.67569447;stroke-linecap:butt;stroke-linejoin:miter;stroke-miterlimit:4;stroke-dasharray:none;stroke-opacity:1"
       id="path3528"
       sodipodi:nodetypes="cc"
       d="" />
    <path
       style="fill:none;fill-opacity:1;fill-rule:evenodd;stroke:#00c400;stroke-width:12.67569447;stroke-linecap:butt;stroke-linejoin:miter;stroke-miterlimit:4;stroke-dasharray:none;stroke-opacity:1"
       id="path3530"
       sodipodi:nodetypes="cc"
       d="" />
    <text
       xml:space="preserve"
       style="font-size:34.21880341px;font-style:italic;font-variant:normal;font-weight:normal;font-stretch:normal;text-align:start;line-height:125%;writing-mode:lr-tb;text-anchor:start;fill:#000000;fill-opacity:1;stroke:none;stroke-width:1px;stroke-linecap:butt;stroke-linejoin:miter;stroke-opacity:1;font-family:Candara;-inkscape-font-specification:Candara Italic"
       x="489.35159"
       y="477.56906"
       id="text3624"
       sodipodi:linespacing="125%"
       transform="scale(0.8773886,1.1397458)"><tspan
         sodipodi:role="line"
         id="tspan3626"
         x="489.35159"
         y="477.56906">A B O R A T O R Y</tspan></text>
    <text
       xml:space="preserve"
       style="font-size:34.21880341px;font-style:italic;font-variant:normal;font-weight:normal;font-stretch:normal;text-align:start;line-height:125%;writing-mode:lr-tb;text-anchor:start;fill:#000000;fill-opacity:1;stroke:none;stroke-width:1px;stroke-linecap:butt;stroke-linejoin:miter;stroke-opacity:1;font-family:Candara;-inkscape-font-specification:Candara Italic"
       x="335.47366"
       y="478.54608"
       id="text3628"
       sodipodi:linespacing="125%"
       transform="scale(0.8773886,1.1397458)"><tspan
         sodipodi:role="line"
         id="tspan3630"
         x="335.47366"
         y="478.54608">R A P H</tspan></text>
    <text
       xml:space="preserve"
       style="font-size:34.21880341px;font-style:italic;font-variant:normal;font-weight:normal;font-stretch:normal;text-align:start;line-height:125%;writing-mode:lr-tb;text-anchor:start;fill:#000000;fill-opacity:1;stroke:none;stroke-width:1px;stroke-linecap:butt;stroke-linejoin:miter;stroke-opacity:1;font-family:Candara;-inkscape-font-specification:Candara Italic"
       x="202.87357"
       y="478.45972"
       id="text3632"
       sodipodi:linespacing="125%"
       transform="scale(0.8773886,1.1397458)"><tspan
         sodipodi:role="line"
         id="tspan3634"
         x="202.87357"
         y="478.45972">A V A</tspan></text>
    <text
       xml:space="preserve"
       style="font-size:43.29951096px;font-style:italic;font-variant:normal;font-weight:normal;font-stretch:normal;text-align:start;line-height:125%;writing-mode:lr-tb;text-anchor:start;fill:#000000;fill-opacity:1;stroke:none;stroke-width:1px;stroke-linecap:butt;stroke-linejoin:miter;stroke-opacity:1;font-family:Candara;-inkscape-font-specification:Candara Italic"
       x="301.00723"
       y="478.21652"
       id="text3640"
       sodipodi:linespacing="125%"
       transform="scale(0.8773886,1.1397458)"><tspan
         sodipodi:role="line"
         id="tspan3642"
         x="301.00723"
         y="478.21652">G</tspan></text>
    <text
       xml:space="preserve"
       style="font-size:43.29951096px;font-style:italic;font-variant:normal;font-weight:normal;font-stretch:normal;text-align:start;line-height:125%;writing-mode:lr-tb;text-anchor:start;fill:#000000;fill-opacity:1;stroke:none;stroke-width:1px;stroke-linecap:butt;stroke-linejoin:miter;stroke-opacity:1;font-family:Candara;-inkscape-font-specification:Candara Italic"
       x="458.55875"
       y="478.5065"
       id="text3644"
       sodipodi:linespacing="125%"
       transform="scale(0.8773886,1.1397458)"><tspan
         sodipodi:role="line"
         id="tspan3646"
         x="458.55875"
         y="478.5065">L</tspan></text>
    <path
       style="fill:#00c400;fill-opacity:1;fill-rule:evenodd;stroke:#000000;stroke-width:0.78381085;stroke-linecap:butt;stroke-linejoin:miter;stroke-miterlimit:4;stroke-dasharray:none;stroke-opacity:1"
       d="M 265.39066,363.59931 C 250.07326,363.0564 237.18656,368.25623 227.88406,376.97921 C 215.48076,388.60985 209.24026,405.78473 208.99296,422.93624 C 208.74576,440.08775 214.52926,457.58782 227.33296,469.68933 C 240.13656,481.79084 259.88746,487.7745 285.01646,482.64058 L 290.49706,481.50773 L 289.94596,475.96594 L 285.99626,434.38723 L 273.62676,435.58131 L 277.02526,471.31207 C 257.94956,473.96149 244.80186,469.09426 235.87526,460.65714 C 226.10316,451.42099 221.21866,437.31247 221.42376,423.08933 C 221.62876,408.86619 226.95636,394.86467 236.36516,386.04202 C 245.77386,377.21937 259.06746,372.85619 278.15816,378.11206 L 281.46486,366.14057 C 275.86156,364.59793 270.49636,363.78028 265.39066,363.59931 z"
       id="path3616" />
    <path
       style="fill:#00c400;fill-opacity:1;fill-rule:evenodd;stroke:#000000;stroke-width:0.78381085;stroke-linecap:butt;stroke-linejoin:round;stroke-miterlimit:4;stroke-dasharray:none;stroke-opacity:1"
       d="M 341.38356,363.29314 C 337.09606,363.29964 332.54086,363.52545 327.72806,363.96672 C 324.78766,364.23811 322.44496,366.5424 322.12506,369.47789 L 310.27606,476.85385 L 322.61496,478.23165 L 327.97306,429.88644 C 337.49836,430.83104 346.45666,431.12319 355.62076,435.42823 C 366.73686,440.65029 379.39936,452.12093 394.04586,480.4055 C 395.19456,482.62972 397.56636,483.94679 400.06166,483.7461 C 402.55686,483.54541 404.68776,481.86619 405.46616,479.48697 C 415.32596,449.64218 421.24286,430.22149 427.38836,415.77172 C 432.38916,404.01373 437.55536,395.49623 445.33036,386.62375 C 459.34996,412.92171 465.28946,445.29135 466.11966,478.20103 L 478.51976,477.86423 C 477.57816,440.53669 470.58826,403.02249 451.85186,372.81521 C 450.84986,371.20379 449.16616,370.13887 447.28086,369.92408 C 445.39556,369.7093 443.51546,370.36822 442.17666,371.71298 C 430.01756,383.9708 422.51946,395.42741 415.93736,410.90352 C 410.52356,423.63277 405.10216,440.60116 398.05676,462.21863 C 385.22936,440.96145 372.91316,429.84119 360.88696,424.19156 C 359.36006,423.47426 357.84836,422.90823 356.35556,422.35451 C 362.50936,420.29478 368.07276,418.00294 372.61346,415.37369 C 383.91366,408.83042 390.92546,400.31995 391.04526,390.6959 C 391.16516,381.07185 383.79646,373.018 372.91966,368.52875 C 364.76206,365.1618 354.24596,363.27363 341.38356,363.29314 z M 341.41416,375.7545 C 353.06646,375.76709 362.06016,377.48698 368.17396,380.01035 C 376.32566,383.37485 378.65586,387.22829 378.61456,390.54281 C 378.57326,393.85733 375.56786,399.31727 366.39816,404.62691 C 358.40956,409.25263 345.95356,413.34881 329.50386,415.83296 L 333.91286,376.0913 C 336.44796,375.95036 339.08766,375.75199 341.41416,375.7545 z"
       id="path3618" />
    <path
       sodipodi:type="arc"
       style="opacity:1;fill:#ffffff;fill-opacity:1;fill-rule:nonzero;stroke:#001700;stroke-width:15.41448402;stroke-miterlimit:4;stroke-dasharray:none;stroke-opacity:1"
       id="path3171"
       sodipodi:cx="160"
       sodipodi:cy="123.79076"
       sodipodi:rx="98.571426"
       sodipodi:ry="98.571426"
       d="M 258.57143,123.79076 A 98.571426,98.571426 0 1 1 61.428574,123.79076 A 98.571426,98.571426 0 1 1 258.57143,123.79076 z"
       transform="matrix(0.1271225,0,0,0.1271225,264.25116,460.19663)" />
    <path
       sodipodi:type="arc"
       style="opacity:1;fill:#ffffff;fill-opacity:1;fill-rule:nonzero;stroke:#001700;stroke-width:15.41448402;stroke-miterlimit:4;stroke-dasharray:none;stroke-opacity:1"
       id="path3175"
       sodipodi:cx="160"
       sodipodi:cy="123.79076"
       sodipodi:rx="98.571426"
       sodipodi:ry="98.571426"
       d="M 258.57143,123.79076 A 98.571426,98.571426 0 1 1 61.428574,123.79076 A 98.571426,98.571426 0 1 1 258.57143,123.79076 z"
       transform="matrix(0.1271225,0,0,0.1271225,262.24476,357.23158)" />
    <path
       style="opacity:1;fill:#ffffff;fill-opacity:1;fill-rule:nonzero;stroke:#001700;stroke-width:1.95952713;stroke-miterlimit:4;stroke-dasharray:none;stroke-opacity:1"
       d="M 281.09976,422.00547 C 274.18276,422.00547 268.57276,427.61554 268.57276,434.53245 C 268.57276,441.44937 274.18276,447.05944 281.09976,447.05944 C 288.01666,447.05944 293.62666,441.44937 293.62666,434.53245 C 293.62666,427.61555 288.01666,422.00547 281.09976,422.00547 z"
       id="path3177" />
    <path
       sodipodi:type="arc"
       style="opacity:1;fill:#ffffff;fill-opacity:1;fill-rule:nonzero;stroke:#001700;stroke-width:15.41448402;stroke-miterlimit:4;stroke-dasharray:none;stroke-opacity:1"
       id="path3238"
       sodipodi:cx="160"
       sodipodi:cy="123.79076"
       sodipodi:rx="98.571426"
       sodipodi:ry="98.571426"
       d="M 258.57143,123.79076 A 98.571426,98.571426 0 1 1 61.428574,123.79076 A 98.571426,98.571426 0 1 1 258.57143,123.79076 z"
       transform="matrix(0.1271225,0,0,0.1271225,303.38196,409.33852)" />
    <path
       sodipodi:type="arc"
       style="opacity:1;fill:#ffffff;fill-opacity:1;fill-rule:nonzero;stroke:#001700;stroke-width:15.41448402;stroke-miterlimit:4;stroke-dasharray:none;stroke-opacity:1"
       id="path3240"
       sodipodi:cx="160"
       sodipodi:cy="123.79076"
       sodipodi:rx="98.571426"
       sodipodi:ry="98.571426"
       d="M 258.57143,123.79076 A 98.571426,98.571426 0 1 1 61.428574,123.79076 A 98.571426,98.571426 0 1 1 258.57143,123.79076 z"
       transform="matrix(0.1271225,0,0,0.1271225,297.68356,461.47266)" />
    <path
       style="opacity:1;fill:#ffffff;fill-opacity:1;fill-rule:nonzero;stroke:#001700;stroke-width:1.95952713;stroke-miterlimit:4;stroke-dasharray:none;stroke-opacity:1"
       d="M 328.98476,360.82998 C 322.06786,360.82998 316.45776,366.44006 316.45776,373.35698 C 316.45776,380.27389 322.06786,385.88397 328.98476,385.88397 C 335.90166,385.88397 341.51176,380.27388 341.51176,373.35698 C 341.51176,366.44006 335.90166,360.82998 328.98476,360.82998 z"
       id="path3242" />
    <path
       sodipodi:type="arc"
       style="opacity:1;fill:#ffffff;fill-opacity:1;fill-rule:nonzero;stroke:#001700;stroke-width:15.41448402;stroke-miterlimit:4;stroke-dasharray:none;stroke-opacity:1"
       id="path3248"
       sodipodi:cx="160"
       sodipodi:cy="123.79076"
       sodipodi:rx="98.571426"
       sodipodi:ry="98.571426"
       d="M 258.57143,123.79076 A 98.571426,98.571426 0 1 1 61.428574,123.79076 A 98.571426,98.571426 0 1 1 258.57143,123.79076 z"
       transform="matrix(0.1271225,0,0,0.1271225,425.70376,362.69076)" />
    <path
       sodipodi:type="arc"
       style="opacity:1;fill:#ffffff;fill-opacity:1;fill-rule:nonzero;stroke:#001700;stroke-width:15.41448402;stroke-miterlimit:4;stroke-dasharray:none;stroke-opacity:1"
       id="path3250"
       sodipodi:cx="160"
       sodipodi:cy="123.79076"
       sodipodi:rx="98.571426"
       sodipodi:ry="98.571426"
       d="M 258.57143,123.79076 A 98.571426,98.571426 0 1 1 61.428574,123.79076 A 98.571426,98.571426 0 1 1 258.57143,123.79076 z"
       transform="matrix(0.1271225,0,0,0.1271225,379.14976,462.0384)" />
    <path
       style="opacity:1;fill:#ffffff;fill-opacity:1;fill-rule:nonzero;stroke:#001700;stroke-width:1.95952713;stroke-miterlimit:4;stroke-dasharray:none;stroke-opacity:1"
       d="M 415.82476,418.81875 C 408.90786,418.81875 403.29786,424.42883 403.29786,431.34574 C 403.29786,438.26265 408.90786,443.87272 415.82476,443.87272 C 422.74166,443.87272 428.35176,438.26265 428.35176,431.34574 C 428.35176,424.42883 422.74166,418.81875 415.82476,418.81875 z"
       id="path3252"
       sodipodi:nodetypes="csssc" />
    <path
       sodipodi:type="arc"
       style="opacity:1;fill:#ffffff;fill-opacity:1;fill-rule:nonzero;stroke:#001700;stroke-width:15.41448402;stroke-miterlimit:4;stroke-dasharray:none;stroke-opacity:1"
       id="path3258"
       sodipodi:cx="160"
       sodipodi:cy="123.79076"
       sodipodi:rx="98.571426"
       sodipodi:ry="98.571426"
       d="M 258.57143,123.79076 A 98.571426,98.571426 0 1 1 61.428574,123.79076 A 98.571426,98.571426 0 1 1 258.57143,123.79076 z"
       transform="matrix(0.1271225,0,0,0.1271225,451.87336,462.94949)" />
    <path
       sodipodi:type="arc"
       style="opacity:1;fill:#ffffff;fill-opacity:1;fill-rule:nonzero;stroke:#001700;stroke-width:15.41448402;stroke-miterlimit:4;stroke-dasharray:none;stroke-opacity:1"
       id="path3260"
       sodipodi:cx="160"
       sodipodi:cy="123.79076"
       sodipodi:rx="98.571426"
       sodipodi:ry="98.571426"
       d="M 258.57143,123.79076 A 98.571426,98.571426 0 1 1 61.428574,123.79076 A 98.571426,98.571426 0 1 1 258.57143,123.79076 z"
       transform="matrix(0.1271225,0,0,0.1271225,545.09406,384.84133)" />
    <flowRoot
       xml:space="preserve"
       id="flowRoot2736"
       style="font-size:20px;font-style:normal;font-weight:normal;fill:#000000;fill-opacity:1;stroke:none;stroke-width:1px;stroke-linecap:butt;stroke-linejoin:miter;stroke-opacity:1;font-family:Bitstream Vera Sans"><flowRegion
         id="flowRegion2738"><rect
           id="rect2740"
           width="754.28571"
           height="68.571426"
           x="-568.57141"
           y="146.6479" /></flowRegion><flowPara
         id="flowPara2742"></flowPara></flowRoot>  </g>
</svg>
